<svg width="301" height="96" viewBox="0 0 301 96" fill="none" xmlns="http://www.w3.org/2000/svg">
<path d="M151.575 74.4821C147.393 74.4821 143.745 73.5434 140.631 71.6661C137.559 69.7461 135.169 67.0581 133.463 63.6021C131.799 60.1461 130.967 56.0501 130.967 51.3141C130.967 47.7301 131.436 44.5301 132.375 41.7141C133.356 38.8554 134.743 36.4447 136.535 34.4821C138.327 32.4767 140.481 30.9407 142.999 29.8741C145.559 28.7647 148.417 28.2101 151.575 28.2101C155.841 28.2101 159.511 29.1487 162.583 31.0261C165.697 32.9034 168.087 35.5701 169.751 39.0261C171.457 42.4394 172.311 46.5141 172.311 51.2501C172.311 54.8341 171.82 58.0554 170.839 60.9141C169.857 63.7727 168.471 66.2047 166.679 68.2101C164.887 70.2154 162.711 71.7727 160.151 72.8821C157.633 73.9487 154.775 74.4821 151.575 74.4821ZM151.575 69.8101C154.817 69.8101 157.548 69.0847 159.767 67.6341C162.028 66.1834 163.756 64.0714 164.951 61.2981C166.145 58.5247 166.743 55.1967 166.743 51.3141C166.743 45.4687 165.42 40.9461 162.775 37.7461C160.172 34.5034 156.439 32.8821 151.575 32.8821C148.417 32.8821 145.708 33.6074 143.447 35.0581C141.228 36.5087 139.521 38.6207 138.327 41.3941C137.132 44.1247 136.535 47.4314 136.535 51.3141C136.535 57.1167 137.857 61.6607 140.503 64.9461C143.148 68.1887 146.839 69.8101 151.575 69.8101ZM194.365 74.4821C191.293 74.4821 188.626 73.8207 186.365 72.4981C184.146 71.1327 182.418 69.1274 181.181 66.4821C179.986 63.8367 179.389 60.5941 179.389 56.7541V51.9541C179.389 47.8154 179.922 44.3594 180.989 41.5861C182.098 38.8127 183.762 36.5727 185.981 34.8661C188.242 33.1594 191.037 31.8581 194.365 30.9621L203.709 28.3381C204.477 28.1247 205.117 28.1461 205.629 28.4021C206.184 28.6581 206.525 29.1274 206.653 29.8101C206.824 30.5354 206.717 31.1541 206.333 31.6661C205.992 32.1781 205.437 32.5407 204.669 32.7541L194.749 35.4421C192.445 36.0821 190.525 37.0421 188.989 38.3221C187.453 39.6021 186.301 41.1807 185.533 43.0581C184.765 44.8927 184.381 46.9834 184.381 49.3301V51.8261H183.485C183.997 49.9487 184.808 48.3274 185.917 46.9621C187.026 45.5967 188.392 44.5514 190.013 43.8261C191.677 43.0581 193.512 42.6741 195.517 42.6741C198.205 42.6741 200.573 43.3141 202.621 44.5941C204.669 45.8741 206.248 47.6874 207.357 50.0341C208.509 52.3807 209.085 55.1754 209.085 58.4181C209.085 61.6607 208.466 64.4981 207.229 66.9301C206.034 69.3194 204.328 71.1754 202.109 72.4981C199.933 73.8207 197.352 74.4821 194.365 74.4821ZM194.173 70.3221C196.221 70.3221 197.949 69.8741 199.357 68.9781C200.808 68.0394 201.917 66.6954 202.685 64.9461C203.453 63.1967 203.837 61.0634 203.837 58.5461C203.837 54.8341 202.984 51.9541 201.277 49.9061C199.57 47.8581 197.224 46.8341 194.237 46.8341C192.232 46.8341 190.504 47.2821 189.053 48.1781C187.645 49.0741 186.557 50.3754 185.789 52.0821C185.021 53.7461 184.637 55.7514 184.637 58.0981C184.637 62.1087 185.469 65.1594 187.133 67.2501C188.84 69.2981 191.186 70.3221 194.173 70.3221ZM231.575 74.4821C228.29 74.4821 225.452 73.8421 223.063 72.5621C220.716 71.2394 218.882 69.3834 217.559 66.9941C216.279 64.6047 215.639 61.7461 215.639 58.4181C215.639 55.1754 216.279 52.3594 217.559 49.9701C218.839 47.5381 220.588 45.6394 222.807 44.2741C225.068 42.9087 227.671 42.2261 230.615 42.2261C232.706 42.2261 234.583 42.5887 236.247 43.3141C237.911 43.9967 239.319 44.9994 240.471 46.3221C241.666 47.6447 242.562 49.2447 243.159 51.1221C243.799 52.9994 244.119 55.1114 244.119 57.4581C244.119 58.1407 243.927 58.6527 243.543 58.9941C243.159 59.2927 242.604 59.4421 241.879 59.4421H219.607V56.0501H240.663L239.639 56.8821C239.639 54.5781 239.298 52.6367 238.615 51.0581C237.932 49.4367 236.93 48.1994 235.607 47.3461C234.327 46.4927 232.706 46.0661 230.743 46.0661C228.567 46.0661 226.711 46.5781 225.175 47.6021C223.682 48.5834 222.551 49.9701 221.783 51.7621C221.015 53.5114 220.631 55.5594 220.631 57.9061V58.2901C220.631 62.2154 221.57 65.2021 223.447 67.2501C225.367 69.2981 228.076 70.3221 231.575 70.3221C233.026 70.3221 234.455 70.1301 235.863 69.7461C237.314 69.3621 238.722 68.7221 240.087 67.8261C240.684 67.4421 241.218 67.2714 241.687 67.3141C242.199 67.3141 242.604 67.4634 242.903 67.7621C243.202 68.0181 243.394 68.3594 243.479 68.7861C243.607 69.1701 243.564 69.5967 243.351 70.0661C243.18 70.5354 242.818 70.9407 242.263 71.2821C240.855 72.3061 239.191 73.0954 237.271 73.6501C235.351 74.2047 233.452 74.4821 231.575 74.4821ZM251.031 82.6741C250.305 82.6741 249.751 82.4607 249.367 82.0341C248.983 81.6074 248.791 81.0101 248.791 80.2421V72.3061C248.791 70.5994 249.644 69.7461 251.351 69.7461H254.423L251.351 70.8341C252.503 69.2981 253.42 67.6341 254.103 65.8421C254.828 64.0074 255.361 61.9594 255.703 59.6981C256.044 57.4367 256.215 54.8554 256.215 51.9541V45.7461C256.215 44.7647 256.471 44.0394 256.983 43.5701C257.495 43.0581 258.22 42.8021 259.159 42.8021H275.287C276.268 42.8021 276.993 43.0581 277.463 43.5701C277.975 44.0394 278.231 44.7647 278.231 45.7461V72.1141L275.863 69.7461H280.599C281.409 69.7461 282.028 69.9594 282.455 70.3861C282.924 70.8127 283.159 71.4527 283.159 72.3061V80.2421C283.159 81.8634 282.412 82.6741 280.919 82.6741C280.193 82.6741 279.639 82.4607 279.255 82.0341C278.871 81.6074 278.679 81.0101 278.679 80.2421V73.9061H253.207V80.2421C253.207 81.8634 252.481 82.6741 251.031 82.6741ZM257.047 69.7461H273.303V46.8981H260.823V52.8501C260.823 56.0501 260.503 59.1434 259.863 62.1301C259.223 65.0741 258.284 67.6127 257.047 69.7461Z" fill="black"/>
<path d="M71.9681 60.5962C72.0615 60.5962 72.1548 60.577 72.2456 60.5348L82.7028 55.6992C83.0339 55.5469 83.1784 55.154 83.025 54.8225C82.8716 54.4897 82.4765 54.3464 82.1492 54.4999L71.692 59.3355C71.3608 59.4878 71.2164 59.8807 71.3698 60.2122C71.481 60.4541 71.7175 60.5962 71.9681 60.5962Z" fill="black" stroke="black"/>
<path d="M63.2305 63.9752C63.3417 64.2171 63.5795 64.3592 63.8289 64.3592C63.9222 64.3592 64.0155 64.3387 64.1063 64.2978L68.5403 62.2473C68.8714 62.095 69.0146 61.7021 68.8625 61.3706C68.7078 61.0378 68.3153 60.8932 67.9867 61.048L63.5527 63.0985C63.2216 63.2508 63.0771 63.6437 63.2305 63.9752Z" fill="black" stroke="black"/>
<path d="M69.2321 64.7253C69.3433 64.9685 69.5837 65.1131 69.8343 65.1131C69.9251 65.1131 70.0184 65.0926 70.1079 65.0542L82.4075 59.4737C82.7386 59.3227 82.8857 58.9311 82.7361 58.5983C82.5865 58.2681 82.1952 58.1247 81.8615 58.2693L69.562 63.8498C69.2295 64.0008 69.0825 64.3925 69.2321 64.7253Z" fill="black" stroke="black"/>
<path d="M101 69.3727C101 67.1111 97.8241 65.3486 91.0031 63.8242C90.5044 63.7129 89.9905 64.0303 89.8779 64.5397C89.7629 65.0478 90.0851 65.5534 90.5927 65.666C99.0183 67.5501 99.1141 69.2984 99.1141 69.3727C99.1141 72.2832 80.8105 76.3419 51 76.3419C21.1908 76.3419 2.88585 72.2832 2.88585 69.3727C2.88585 69.2984 2.98302 67.5475 11.4086 65.6647C11.9162 65.5521 12.2371 65.0465 12.1233 64.5384C12.0108 64.0277 11.502 63.7129 10.9982 63.8229C4.17718 65.3473 1 67.1098 1 69.3727C1 73.5516 13.3686 76.0168 27.5413 77.2455C27.3508 77.3658 27.2178 77.5719 27.2242 77.8151C27.2792 79.9282 28.9784 81.6523 31.0266 81.6907C31.7311 81.8302 37.4858 82.8836 51.4142 82.8836C64.2048 82.8836 71.1153 81.6945 71.0693 81.692C73.1508 81.692 74.887 79.9525 74.942 77.8151C74.9484 77.5642 74.809 77.3505 74.607 77.234C88.717 76.0001 101 73.5376 101 69.3727ZM73.6213 77.7805C73.5855 79.2076 72.4399 80.3698 70.9542 80.38C70.8865 80.3916 64.0744 81.5601 51.4142 81.5601C36.9846 81.5601 31.2887 80.3954 31.2337 80.3839C31.1902 80.3749 31.1429 80.3698 31.0982 80.3698C29.7263 80.3698 28.582 79.2076 28.5449 77.7805C28.5398 77.5949 28.458 77.4311 28.3314 77.3146C35.9682 77.9495 44.0677 78.231 51.0013 78.231C58.009 78.231 66.207 77.9431 73.9153 77.2941C73.7504 77.4055 73.6277 77.5668 73.6213 77.7805Z" fill="black" stroke="black"/>
<path d="M13.9133 69.2204C14.1766 69.9858 14.5397 71.0341 36.5985 71.6356C42.66 71.8008 49.0962 71.8839 55.2614 71.8839C60.442 71.8839 65.4296 71.8263 69.8393 71.7073C87.7952 71.2261 88.2746 70.0473 88.5917 69.2691C89.6452 66.6798 89.6964 66.4763 89.6542 64.9237C89.6452 64.6165 89.6363 64.2428 89.6363 63.7551C89.6363 49.6337 80.4551 36.9433 66.2466 31.4255C65.7633 31.2412 65.2161 31.4793 65.0269 31.9657C64.8376 32.4508 65.0806 32.9986 65.5664 33.188C79.0423 38.4216 87.7491 50.4209 87.7491 63.7564C87.7491 64.2633 87.7594 64.6549 87.7696 64.9749C87.8016 66.1768 87.8016 66.2062 86.9143 68.3897C82.8472 70.5656 21.0296 70.4939 15.5958 68.3206L15.4616 67.9379C14.8901 66.3112 14.7712 65.972 14.7712 63.7564C14.7712 50.9085 23.0382 39.0884 35.8326 33.6449C36.3108 33.4401 36.5345 32.8872 36.3312 32.4072C36.1254 31.926 35.5731 31.7046 35.0936 31.9081C21.6024 37.6473 12.884 50.1483 12.884 63.7564C12.884 66.1934 13.0502 66.7655 13.6818 68.5638L13.9133 69.2204Z" fill="black" stroke="black"/>
<path d="M22.8286 55.0619C22.4859 54.9531 22.1113 55.1489 22.0039 55.4983C21.5603 56.9293 21.2355 58.3961 21.0335 59.8552C20.9837 60.2161 21.2355 60.5502 21.5974 60.5988C21.628 60.6027 21.6587 60.6052 21.6881 60.6052C22.0116 60.6052 22.2954 60.3646 22.3402 60.0344C22.5307 58.6482 22.8427 57.2531 23.2646 55.8887C23.372 55.5406 23.1764 55.1694 22.8286 55.0619Z" fill="black" stroke="black"/>
<path d="M23.6392 53.6207C23.8936 53.6207 24.1378 53.4709 24.2452 53.2214C25.8332 49.5339 28.2164 46.1677 31.134 43.485C31.4038 43.2392 31.4204 42.8194 31.1736 42.5519C30.9269 42.2818 30.5088 42.2652 30.2429 42.5122C27.1871 45.3191 24.694 48.8415 23.0332 52.6991C22.8874 53.0332 23.0421 53.4223 23.3771 53.5657C23.4627 53.6041 23.5522 53.6207 23.6392 53.6207Z" fill="black" stroke="black"/>
<path d="M33.5185 39.9063C33.2206 40.1137 33.1439 40.5258 33.351 40.8266C33.4801 41.0109 33.6847 41.112 33.8944 41.112C34.0248 41.112 34.1539 41.0736 34.2702 40.9942C39.4816 37.3938 45.9561 35.4112 52.5074 35.4112H52.5138C52.8769 35.4112 53.1735 35.1156 53.1735 34.7495C53.1735 34.3834 52.9114 34.0737 52.5074 34.089C45.6915 34.089 38.9472 36.1548 33.5185 39.9063Z" fill="black" stroke="black"/>
<path d="M37.8783 31.862C37.9243 31.9862 37.9946 32.0898 38.0803 32.182C38.6122 32.9563 39.3512 33.5886 40.2334 33.9624C40.3177 33.9982 40.406 34.0148 40.4929 34.0148C40.7512 34.0148 40.9979 33.8625 41.104 33.6091C41.2485 33.2699 41.09 32.8795 40.7524 32.7362C40.4405 32.6044 40.1528 32.4213 39.892 32.2063C47.0544 30.0727 54.9558 30.001 62.1489 32.045C62.3764 33.7729 63.5271 35.3063 65.1381 35.9885C65.2225 36.023 65.3094 36.041 65.3964 36.041C65.6546 36.041 65.9027 35.8886 66.0101 35.6339C66.1533 35.296 65.9947 34.9044 65.6546 34.761C64.449 34.2503 63.5591 33.0319 63.4427 31.7289C63.329 30.4605 63.8915 29.1345 64.9476 28.1809C65.1381 28.0082 65.3452 27.8443 65.5498 27.6818C66.1379 27.2159 66.7478 26.7346 67.1109 26.0076C67.4331 25.369 67.4791 24.688 67.4829 24.1645C67.4932 22.3061 66.914 20.4208 65.8528 18.8593C65.6457 18.5534 65.2314 18.4791 64.9284 18.6839C64.6241 18.8913 64.5461 19.3047 64.7533 19.608C65.6636 20.9494 66.1597 22.5659 66.152 24.1556C66.1481 24.7162 66.0765 25.1027 65.9218 25.4086C65.6904 25.8707 65.2199 26.2419 64.7226 26.6361C64.495 26.8178 64.2661 26.997 64.0539 27.1903C63.1551 28.003 62.5414 29.0372 62.2652 30.129C61.4853 29.9165 60.7003 29.7156 59.9076 29.5492C59.9089 29.5428 59.9127 29.5364 59.9127 29.5287C59.9178 29.457 59.9216 29.3854 59.9216 29.3124C59.9216 24.7418 56.1167 21.0249 51.4411 21.0249C50.1932 21.0249 48.9914 21.2847 47.8701 21.7916C44.8885 23.147 42.9618 26.0972 42.9618 29.3111C42.9618 29.361 42.9643 29.4225 42.9694 29.5005C41.54 29.786 40.126 30.129 38.7426 30.5654C38.6416 30.2851 38.5649 29.9959 38.538 29.7002C38.4255 28.4318 38.9868 27.1045 40.0416 26.151C40.2321 25.9795 40.4379 25.8182 40.6412 25.6557C41.2306 25.1885 41.8418 24.706 42.2061 23.9815C42.5296 23.339 42.5731 22.6581 42.5769 22.1384C42.5884 20.2825 42.0092 18.3985 40.9493 16.8319C40.7422 16.5285 40.3318 16.4504 40.0249 16.6552C39.7207 16.8626 39.6427 17.2773 39.8472 17.5806C40.7601 18.9233 41.2562 20.5411 41.2472 22.1295C41.2447 22.6875 41.1744 23.0741 41.0197 23.3825C40.787 23.8446 40.3152 24.2157 39.8178 24.61C39.589 24.7904 39.3614 24.9709 39.1491 25.1629C37.7862 26.3967 37.0613 28.1361 37.2122 29.8192C37.2799 30.5488 37.5164 31.2425 37.8783 31.862ZM46.8792 28.9028C47.0978 26.6297 49.0489 24.8378 51.4449 24.8378C53.8358 24.8378 55.783 26.6233 56.0029 28.9425C52.9753 28.6033 49.9094 28.5892 46.8792 28.9028ZM48.4186 22.9985C49.3673 22.5659 50.385 22.3483 51.4436 22.3483C55.3508 22.3483 58.5255 25.4125 58.5856 29.3188C58.1752 29.2471 57.7647 29.1716 57.3518 29.1115C57.2405 26.0089 54.6425 23.5143 51.4449 23.5143C48.2613 23.5143 45.6761 25.9859 45.5419 29.0692C45.1238 29.1255 44.7057 29.1678 44.2902 29.2369C44.3209 26.5721 45.9318 24.1287 48.4186 22.9985Z" fill="black" stroke="black"/>
<path d="M52.7184 19.3955C52.8066 19.4352 52.9 19.4544 52.992 19.4544C53.2452 19.4544 53.4881 19.3085 53.598 19.0614C53.7489 18.7261 53.5993 18.3319 53.2643 18.1808C52.0497 17.6343 51.1547 16.3275 51.0371 14.9286C50.922 13.5603 51.4897 12.1345 52.5547 11.1118C52.7478 10.9288 52.9536 10.756 53.1582 10.5819C53.7463 10.0904 54.3524 9.58104 54.7129 8.81948C55.03 8.15136 55.0735 7.44101 55.076 6.89704C55.0863 4.94259 54.5122 2.95615 53.4574 1.30761C53.2567 0.995307 52.8424 0.906993 52.5381 1.10666C52.2287 1.30377 52.1379 1.71718 52.3374 2.02565C53.2541 3.46172 53.7553 5.18962 53.7463 6.89192C53.7438 7.49476 53.6709 7.9133 53.5124 8.24992C53.2771 8.74781 52.8053 9.14458 52.3041 9.56312C52.0753 9.75383 51.8477 9.9471 51.6355 10.1519C50.2828 11.4484 49.5642 13.2762 49.7125 15.0399C49.8711 16.9355 51.0512 18.6455 52.7184 19.3955Z" fill="black" stroke="black"/>
</svg>
